<svg width="22" height="20" viewBox="0 0 22 20" fill="none" xmlns="http://www.w3.org/2000/svg">
<path d="M1.42822 11.4937L0.344238 10.5029C-0.114746 10.0834 -0.114746 9.40511 0.344238 8.99008L9.83154 0.314619C10.2905 -0.104873 11.0327 -0.104873 11.4868 0.314619L20.9741 8.98562C21.4331 9.40511 21.4331 10.0834 20.9741 10.4985L19.8901 11.4892C19.4263 11.9131 18.6694 11.9042 18.2153 11.4713L12.6147 6.09826V18.924C12.6147 19.5176 12.0923 19.9951 11.4429 19.9951H9.88037C9.23096 19.9951 8.7085 19.5176 8.7085 18.924V6.09826L3.10303 11.4758C2.64893 11.9131 1.89209 11.9221 1.42822 11.4937Z" fill="black"/>
</svg>
