<svg width="550" height="550" viewBox="0 0 550 550" fill="none" xmlns="http://www.w3.org/2000/svg">
<path d="M502.205 230.021C448.591 138.193 303.16 170.896 273.46 126.236C258.247 103.4 241.23 76.857 216.546 63.074C193.017 49.874 165.737 45.243 141.955 46.981C57.024 53.196 21.021 129.184 37.334 212.63C59.114 323.939 157.784 437.646 275 438.438C336.314 438.9 394.9 416.9 440.77 385.957L441.793 385.264C487.663 354.035 543.147 300.124 502.205 230.021Z" fill="#00F0AC"/>
<path opacity="0.7" d="M502.205 230.021C448.591 138.193 303.16 170.896 273.46 126.236C258.247 103.4 241.23 76.857 216.546 63.074C193.017 49.874 165.737 45.243 141.955 46.981C57.024 53.196 21.021 129.184 37.334 212.63C59.114 323.939 157.784 437.646 275 438.438C336.314 438.9 394.9 416.9 440.77 385.957L441.793 385.264C487.663 354.035 543.147 300.124 502.205 230.021Z" fill="white"/>
<path d="M86.009 236.698H80.047C73.6492 236.698 67.5134 239.24 62.9895 243.763C58.4655 248.287 55.924 254.423 55.924 260.821V393.195C55.924 399.593 58.4655 405.729 62.9895 410.253C67.5134 414.776 73.6492 417.318 80.047 417.318H161.843C168.241 417.318 174.377 414.776 178.901 410.253C183.424 405.729 185.966 399.593 185.966 393.195" stroke="#263238" stroke-width="1.10311" stroke-linecap="round" stroke-linejoin="round" stroke-dasharray="4.41 4.41"/>
<path d="M179.3 111.793V85.646C179.3 81.7337 180.852 77.9811 183.615 75.2115C186.379 72.442 190.128 70.8817 194.04 70.873H300.41C304.328 70.873 308.086 72.4294 310.856 75.1999C313.627 77.9704 315.183 81.7279 315.183 85.646" stroke="#263238" stroke-width="1.10311" stroke-linecap="round" stroke-linejoin="round" stroke-dasharray="4.41 4.41"/>
<path d="M275 519.376C391.351 519.376 485.672 506.197 485.672 489.94C485.672 473.683 391.351 460.504 275 460.504C158.649 460.504 64.328 473.683 64.328 489.94C64.328 506.197 158.649 519.376 275 519.376Z" fill="#00F0AC"/>
<path opacity="0.5" d="M275 519.376C391.351 519.376 485.672 506.197 485.672 489.94C485.672 473.683 391.351 460.504 275 460.504C158.649 460.504 64.328 473.683 64.328 489.94C64.328 506.197 158.649 519.376 275 519.376Z" fill="white"/>
<path d="M473.594 146.872V344.938C473.594 351.413 471.023 357.622 466.445 362.202C461.868 366.781 455.66 369.355 449.185 369.358H100.815C94.3403 369.355 88.1318 366.781 83.5546 362.202C78.9773 357.622 76.406 351.413 76.406 344.938V146.872C76.406 146.289 76.406 145.772 76.483 145.156C76.9118 138.995 79.6615 133.225 84.1772 129.012C88.693 124.798 94.6387 122.454 100.815 122.452H449.185C455.368 122.455 461.32 124.805 465.837 129.028C470.354 133.25 473.099 139.031 473.517 145.2C473.572 145.728 473.594 146.3 473.594 146.872Z" fill="white" stroke="#263238" stroke-width="1.10311" stroke-linecap="round" stroke-linejoin="round"/>
<path d="M88.286 154.308H462.957V337.271C462.957 343.339 460.546 349.159 456.256 353.45C451.965 357.74 446.145 360.151 440.077 360.151H111.177C105.109 360.151 99.2892 357.74 94.9984 353.45C90.7076 349.159 88.297 343.339 88.297 337.271V154.308H88.286Z" fill="#263238"/>
<path opacity="0.2" d="M462.968 154.308V337.271C463 343.305 460.635 349.105 456.392 353.396C452.148 357.686 446.375 360.116 440.341 360.151H110.913C104.879 360.116 99.1055 357.686 94.8624 353.396C90.6193 349.105 88.2538 343.305 88.286 337.271V154.308H462.968Z" fill="white"/>
<path d="M473.517 145.2H76.483C76.9118 139.039 79.6615 133.269 84.1772 129.056C88.693 124.842 94.6387 122.498 100.815 122.496H449.185C455.361 122.498 461.307 124.842 465.823 129.056C470.339 133.269 473.088 139.039 473.517 145.2Z" fill="#00F0AC" stroke="#263238" stroke-width="1.10311" stroke-miterlimit="10"/>
<path d="M125.268 133.804C125.268 134.659 125.014 135.495 124.539 136.206C124.064 136.917 123.389 137.471 122.599 137.798C121.809 138.125 120.94 138.211 120.102 138.044C119.263 137.877 118.493 137.465 117.888 136.861C117.284 136.256 116.872 135.486 116.705 134.647C116.538 133.809 116.624 132.94 116.951 132.15C117.278 131.36 117.832 130.685 118.543 130.21C119.254 129.735 120.09 129.481 120.945 129.481C122.092 129.481 123.191 129.936 124.002 130.747C124.813 131.558 125.268 132.657 125.268 133.804Z" fill="#263238"/>
<path d="M143.55 133.804C143.55 134.659 143.296 135.495 142.821 136.206C142.346 136.917 141.671 137.471 140.881 137.798C140.091 138.125 139.222 138.211 138.384 138.044C137.545 137.877 136.775 137.465 136.17 136.861C135.566 136.256 135.154 135.486 134.987 134.647C134.82 133.809 134.906 132.94 135.233 132.15C135.56 131.36 136.114 130.685 136.825 130.21C137.536 129.735 138.372 129.481 139.227 129.481C140.374 129.481 141.473 129.936 142.284 130.747C143.095 131.558 143.55 132.657 143.55 133.804Z" fill="#263238"/>
<path d="M157.509 138.127C159.897 138.127 161.832 136.192 161.832 133.804C161.832 131.416 159.897 129.481 157.509 129.481C155.121 129.481 153.186 131.416 153.186 133.804C153.186 136.192 155.121 138.127 157.509 138.127Z" fill="#263238"/>
<path d="M462.957 154.308V337.271C462.957 343.339 460.546 349.159 456.256 353.45C451.965 357.74 446.145 360.151 440.077 360.151H111.177C105.881 360.15 100.749 358.312 96.657 354.95C92.5648 351.588 89.7657 346.91 88.737 341.715V341.649C88.4573 340.199 88.3174 338.726 88.319 337.249V154.308H462.957Z" stroke="#263238" stroke-width="1.10311" stroke-miterlimit="10"/>
<path d="M462.605 182.6C461.001 181.699 459.295 180.994 457.523 180.499L455.466 171.314H446.732L444.697 180.499C442.915 180.985 441.201 181.691 439.593 182.6L431.706 177.551L425.535 183.7L430.496 191.587C429.588 193.195 428.882 194.91 428.395 196.691L419.21 198.726V207.46L428.395 209.517C428.877 211.307 429.582 213.03 430.496 214.643L425.447 222.585L431.629 228.756L439.56 223.707C441.164 224.618 442.875 225.327 444.653 225.819L446.699 234.993H455.4L457.446 225.819C459.219 225.322 460.925 224.613 462.528 223.707L462.935 223.971V182.38L462.605 182.6ZM451.121 214.5C448.888 214.5 446.706 213.838 444.85 212.597C442.993 211.357 441.547 209.593 440.693 207.53C439.839 205.468 439.616 203.198 440.053 201.008C440.489 198.819 441.565 196.808 443.145 195.23C444.724 193.652 446.736 192.578 448.926 192.144C451.116 191.709 453.386 191.934 455.448 192.79C457.51 193.646 459.272 195.094 460.51 196.952C461.749 198.809 462.409 200.992 462.407 203.225C462.407 204.707 462.115 206.174 461.548 207.542C460.98 208.911 460.149 210.154 459.101 211.202C458.053 212.249 456.808 213.079 455.439 213.645C454.07 214.211 452.603 214.501 451.121 214.5Z" fill="#263238"/>
<path d="M305.195 191.455V173.041L285.835 168.74C284.79 164.999 283.314 161.393 281.435 157.993L283.778 154.308H192.368L194.623 157.894C192.721 161.279 191.244 164.884 190.223 168.63L170.852 172.942V191.4L190.223 195.723C191.244 199.497 192.721 203.132 194.623 206.547L183.986 223.278L197.021 236.302L213.741 225.654C217.133 227.562 220.741 229.058 224.488 230.109L228.8 249.414H247.17L251.504 230.065C255.239 229.009 258.835 227.513 262.218 225.61L278.949 236.258L291.973 223.234L281.402 206.503C283.276 203.109 284.752 199.51 285.802 195.778L305.195 191.455ZM238.095 206.041C233.389 206.041 228.789 204.646 224.876 202.031C220.964 199.417 217.914 195.701 216.113 191.353C214.312 187.006 213.841 182.222 214.759 177.606C215.677 172.991 217.943 168.751 221.271 165.424C224.598 162.096 228.838 159.83 233.453 158.912C238.069 157.994 242.853 158.465 247.2 160.266C251.548 162.067 255.264 165.117 257.878 169.029C260.493 172.942 261.888 177.542 261.888 182.248C261.889 185.373 261.275 188.468 260.08 191.355C258.885 194.242 257.132 196.866 254.922 199.075C252.713 201.285 250.089 203.038 247.202 204.233C244.315 205.428 241.22 206.042 238.095 206.041Z" fill="#263238"/>
<path d="M183.018 317.9L183.799 303.281L168.652 299.013C167.949 296.009 166.908 293.093 165.55 290.323L174.702 277.475L164.89 266.596L151.184 274.296C148.564 272.648 145.763 271.308 142.835 270.303L140.217 254.771L125.609 254.1L121.385 269.291C118.375 269.966 115.458 271 112.695 272.371L99.858 263.23L88.957 273.031L96.723 286.748C95.0581 289.356 93.7137 292.156 92.719 295.086L88.319 295.812V315.612L91.531 316.514C92.1974 319.528 93.2279 322.45 94.6 325.215L88.286 334.07L88.704 341.649V341.715L95.227 348.942L108.955 341.187C111.57 342.869 114.381 344.225 117.326 345.224L119.9 360.14L120.021 360.767L134.629 361.537L135.014 360.14L138.853 346.357C141.876 345.68 144.808 344.646 147.587 343.277L160.402 352.407L171.292 342.617L163.592 328.889C165.241 326.284 166.568 323.488 167.541 320.562L183.018 317.9ZM144.221 295.075C141.719 292.292 138.447 290.313 134.82 289.39C131.193 288.466 127.374 288.639 123.845 289.886C120.316 291.134 117.237 293.4 114.996 296.398C112.756 299.396 111.454 302.991 111.257 306.728C111.06 310.466 111.976 314.178 113.889 317.395C115.802 320.612 118.626 323.189 122.004 324.801C125.382 326.412 129.162 326.986 132.866 326.449C136.57 325.911 140.032 324.288 142.813 321.783C146.526 318.428 148.759 313.739 149.023 308.742C149.287 303.744 147.56 298.846 144.221 295.119V295.075Z" fill="#263238"/>
<path d="M299.86 296.109C300.425 293.845 300.724 291.523 300.751 289.19L311.256 283.69L308.352 273.031L296.494 273.581C295.293 271.589 293.864 269.743 292.237 268.081L295.746 256.74L286.176 251.24L278.168 259.974C275.908 259.428 273.595 259.133 271.271 259.094L265.771 248.589L255.123 251.482L255.684 263.351C253.692 264.552 251.846 265.98 250.184 267.608L238.832 264.099L233.332 273.658L242.132 281.655C241.563 283.91 241.271 286.226 241.263 288.552L230.736 294.052L233.64 304.7L245.52 304.139C246.697 306.141 248.12 307.989 249.755 309.639L246.224 320.925L255.805 326.425L263.769 317.757C266.031 318.326 268.355 318.618 270.688 318.626L276.188 329.142L286.836 326.249L286.363 316.107L286.286 314.369C288.306 313.18 290.175 311.75 291.852 310.112L303.193 313.632L307.879 305.448L308.671 304.062L299.86 296.109ZM274.703 302.577C271.972 303.33 269.08 303.255 266.392 302.362C263.704 301.469 261.341 299.797 259.605 297.56C257.868 295.322 256.835 292.619 256.636 289.793C256.438 286.968 257.083 284.147 258.49 281.688C259.897 279.23 262.003 277.245 264.539 275.985C267.076 274.725 269.93 274.246 272.739 274.61C275.548 274.974 278.186 276.164 280.318 278.03C282.449 279.895 283.979 282.351 284.713 285.087C285.691 288.733 285.187 292.618 283.312 295.895C281.437 299.171 278.342 301.573 274.703 302.577Z" fill="#263238"/>
<path d="M421.652 314.853L424.072 300.223L409.266 294.272C408.93 291.154 408.217 288.088 407.143 285.142L417.802 273.273L409.178 261.173L394.482 267.41C392.042 265.454 389.376 263.8 386.54 262.482L385.682 246.543L371.052 244.123L365.057 258.863C361.953 259.228 358.9 259.947 355.96 261.008L344.058 250.349L332.013 258.973L338.261 273.658C336.541 275.804 335.048 278.123 333.806 280.577C333.641 280.918 333.465 281.259 333.311 281.6L317.383 282.48L314.952 297.088L317.35 298.056L329.758 303.061C330.097 306.164 330.809 309.215 331.881 312.147L321.2 324.093L329.835 336.193L344.52 329.923C346.952 331.896 349.615 333.566 352.451 334.895L353.276 350.757L367.895 353.177L373.879 338.547C376.99 338.207 380.049 337.491 382.987 336.413L394.867 347.072L406.967 338.437L400.719 323.741C402.709 321.299 404.39 318.62 405.724 315.766L421.652 314.853ZM380.622 314.193C377.544 316.401 373.881 317.647 370.095 317.773C366.309 317.899 362.571 316.9 359.353 314.901C356.135 312.902 353.582 309.994 352.018 306.544C350.453 303.095 349.946 299.259 350.561 295.521C351.177 291.783 352.887 288.312 355.475 285.546C358.064 282.781 361.414 280.845 365.103 279.983C368.792 279.122 372.653 279.374 376.199 280.707C379.744 282.041 382.815 284.395 385.022 287.474C387.979 291.604 389.174 296.739 388.344 301.749C387.515 306.76 384.729 311.236 380.6 314.193H380.622Z" fill="#263238"/>
<path d="M223.388 206.547H108.35C100.386 206.547 93.929 213.003 93.929 220.968V380.237C93.929 388.202 100.386 394.658 108.35 394.658H223.388C231.353 394.658 237.809 388.202 237.809 380.237V220.968C237.809 213.003 231.353 206.547 223.388 206.547Z" fill="#00F0AC" stroke="#263238" stroke-width="1.10311" stroke-miterlimit="10"/>
<path opacity="0.2" d="M223.388 206.547H108.35C100.386 206.547 93.929 213.003 93.929 220.968V380.237C93.929 388.202 100.386 394.658 108.35 394.658H223.388C231.353 394.658 237.809 388.202 237.809 380.237V220.968C237.809 213.003 231.353 206.547 223.388 206.547Z" fill="black"/>
<path d="M251.196 235.18V394.449C251.197 396.344 250.825 398.22 250.101 399.971C249.377 401.722 248.315 403.313 246.976 404.653C245.637 405.994 244.047 407.057 242.296 407.782C240.546 408.508 238.67 408.881 236.775 408.881H121.737C119.843 408.88 117.968 408.505 116.219 407.779C114.47 407.053 112.881 405.99 111.543 404.649C110.205 403.309 109.144 401.719 108.421 399.968C107.697 398.218 107.326 396.343 107.327 394.449V235.18C107.327 231.357 108.845 227.691 111.547 224.987C114.249 222.283 117.914 220.762 121.737 220.759H236.775C240.6 220.759 244.268 222.278 246.972 224.983C249.677 227.687 251.196 231.355 251.196 235.18Z" fill="white" stroke="#263238" stroke-width="1.10311" stroke-linecap="round" stroke-linejoin="round"/>
<path d="M251.196 235.18V243.705H107.327V235.18C107.327 231.357 108.845 227.691 111.547 224.987C114.249 222.283 117.914 220.762 121.737 220.759H236.775C240.6 220.759 244.268 222.278 246.972 224.983C249.677 227.687 251.196 231.355 251.196 235.18Z" fill="#00F0AC" stroke="#263238" stroke-width="1.10311" stroke-miterlimit="10"/>
<path d="M156.255 253.583H120.857V259.523H156.255V253.583Z" fill="#00F0AC"/>
<path d="M156.255 306.812H120.857V312.752H156.255V306.812Z" fill="#00F0AC"/>
<path d="M156.255 355.08H120.857V361.02H156.255V355.08Z" fill="#00F0AC"/>
<path d="M221.386 268.29H120.857V272.646H221.386V268.29Z" fill="#263238"/>
<path d="M203.258 276.617H120.857V280.863H203.258V276.617Z" fill="#263238"/>
<path d="M214.049 284.812H120.857V289.058H214.049V284.812Z" fill="#263238"/>
<path d="M214.049 292.996H120.857V297.242H214.049V292.996Z" fill="#263238"/>
<path d="M221.386 316.558H120.857V320.914H221.386V316.558Z" fill="#263238"/>
<path d="M203.258 324.885H120.857V329.131H203.258V324.885Z" fill="#263238"/>
<path d="M214.049 333.08H120.857V337.326H214.049V333.08Z" fill="#263238"/>
<path d="M221.386 369.556H120.857V373.912H221.386V369.556Z" fill="#263238"/>
<path d="M203.258 377.894H120.857V382.14H203.258V377.894Z" fill="#263238"/>
<path d="M214.049 386.089H120.857V390.335H214.049V386.089Z" fill="#263238"/>
<path d="M413.347 110.319V174.691C413.347 176.95 412.902 179.186 412.037 181.273C411.173 183.36 409.905 185.256 408.307 186.852C406.71 188.449 404.813 189.715 402.726 190.578C400.639 191.442 398.402 191.885 396.143 191.884H247.885C245.626 191.885 243.389 191.442 241.302 190.578C239.215 189.715 237.318 188.449 235.721 186.852C234.123 185.256 232.856 183.36 231.991 181.273C231.126 179.186 230.681 176.95 230.681 174.691V110.319C230.684 105.757 232.497 101.383 235.723 98.1571C238.949 94.9314 243.323 93.1179 247.885 93.115H396.143C400.706 93.115 405.082 94.9275 408.308 98.1539C411.534 101.38 413.347 105.756 413.347 110.319Z" fill="white" stroke="black" stroke-width="1.10311" stroke-miterlimit="10"/>
<path d="M413.347 110.319V111.793H230.681V110.319C230.684 105.757 232.497 101.383 235.723 98.1571C238.949 94.9314 243.323 93.1179 247.885 93.115H396.143C400.706 93.115 405.082 94.9275 408.308 98.1539C411.534 101.38 413.347 105.756 413.347 110.319Z" fill="#00F0AC" stroke="#263238" stroke-width="1.10311" stroke-miterlimit="10"/>
<path d="M257.521 105.534C257.152 105.904 256.682 106.156 256.169 106.258C255.657 106.361 255.126 106.309 254.643 106.109C254.16 105.91 253.748 105.571 253.457 105.137C253.167 104.703 253.012 104.192 253.012 103.669C253.012 103.147 253.167 102.636 253.457 102.202C253.748 101.768 254.16 101.429 254.643 101.23C255.126 101.03 255.657 100.978 256.169 101.081C256.682 101.183 257.152 101.435 257.521 101.805C258.012 102.301 258.287 102.971 258.287 103.669C258.287 104.368 258.012 105.038 257.521 105.534Z" fill="#263238"/>
<path d="M269.753 105.534C269.384 105.904 268.914 106.156 268.401 106.258C267.889 106.361 267.358 106.309 266.875 106.109C266.392 105.91 265.98 105.571 265.689 105.137C265.399 104.703 265.244 104.192 265.244 103.669C265.244 103.147 265.399 102.636 265.689 102.202C265.98 101.768 266.392 101.429 266.875 101.23C267.358 101.03 267.889 100.978 268.401 101.081C268.914 101.183 269.384 101.435 269.753 101.805C270.244 102.301 270.519 102.971 270.519 103.669C270.519 104.368 270.244 105.038 269.753 105.534Z" fill="#263238"/>
<path d="M281.985 105.534C281.616 105.904 281.146 106.156 280.633 106.258C280.121 106.361 279.59 106.309 279.107 106.109C278.624 105.91 278.212 105.571 277.921 105.137C277.631 104.703 277.476 104.192 277.476 103.669C277.476 103.147 277.631 102.636 277.921 102.202C278.212 101.768 278.624 101.429 279.107 101.23C279.59 101.03 280.121 100.978 280.633 101.081C281.146 101.183 281.616 101.435 281.985 101.805C282.476 102.301 282.751 102.971 282.751 103.669C282.751 104.368 282.476 105.038 281.985 105.534Z" fill="#263238"/>
<path d="M302.038 123.629H242.33V175.241H302.038V123.629Z" stroke="#263238" stroke-width="1.10311" stroke-linecap="round" stroke-linejoin="round" stroke-dasharray="4.41 4.41"/>
<path d="M379.973 123.629H311.256V127.259H379.973V123.629Z" fill="#263238"/>
<path d="M363.968 131.142H311.256V134.761H363.968V131.142Z" fill="#263238"/>
<path d="M389.741 138.622H311.256V142.285H389.741V138.622Z" fill="#263238"/>
<path d="M378.092 145.915H311.256V149.578H378.092V145.915Z" fill="#263238"/>
<path d="M418.341 270.083H384.736C380.769 270.083 377.553 273.299 377.553 277.266V296.989C377.553 300.956 380.769 304.172 384.736 304.172H418.341C422.308 304.172 425.524 300.956 425.524 296.989V277.266C425.524 273.299 422.308 270.083 418.341 270.083Z" fill="white" stroke="#263238" stroke-width="1.10311" stroke-linecap="round" stroke-linejoin="round"/>
<path d="M393.03 280.335L383.801 286.121L392.37 293.711" stroke="#263238" stroke-width="1.10311" stroke-linecap="round" stroke-linejoin="round"/>
<path d="M409.838 294.261L418.132 287.199L408.562 280.929" stroke="#263238" stroke-width="1.10311" stroke-linecap="round" stroke-linejoin="round"/>
<path d="M397.518 298.617L404.327 277.255" stroke="#263238" stroke-width="1.10311" stroke-linecap="round" stroke-linejoin="round"/>
<path d="M326.546 484.517C326.546 484.517 294.646 493.658 290.191 495.242C286.143 496.672 275.165 500.522 266.926 499.323C266.131 499.209 265.344 499.04 264.572 498.817C256.223 496.331 252.472 494.01 251.372 488.763C250.272 483.516 254.43 479.644 258.434 477.169C262.438 474.694 284.152 472.109 284.152 472.109L289.399 473.649L326.546 484.517Z" fill="#00F0AC"/>
<path d="M266.926 499.323C266.131 499.209 265.344 499.04 264.572 498.817C256.223 496.331 252.472 494.01 251.372 488.763C250.272 483.516 254.43 479.644 258.434 477.169C262.438 474.694 284.152 472.109 284.152 472.109L289.399 473.649C284.647 475.849 266.959 477.048 263.098 479.27C259.237 481.492 257.378 485.672 259.655 491.37C260.876 494.34 264.132 497.255 266.926 499.323Z" fill="white"/>
<path d="M321.75 485.815C321.75 485.815 297.792 492.019 288.288 495.99C278.784 499.961 260.667 501.699 254.188 493.515C247.709 485.331 253.44 478.269 259.897 476.696C266.354 475.123 279.411 472.648 286.539 473.649" stroke="#263238" stroke-width="1.10311" stroke-linecap="round" stroke-linejoin="round"/>
<path d="M267.399 498.894C267.399 498.894 255.211 492.206 259.259 482.834C262.251 475.926 278.509 477.422 286.561 473.649" stroke="#263238" stroke-width="1.10311" stroke-linecap="round" stroke-linejoin="round"/>
<path d="M423.709 500.808C423.379 504.108 422.224 507.199 418.924 509.146C416.724 510.444 413.6 511.214 409.123 511.17C397.936 511.027 376.904 503.03 376.904 503.03L357.214 492.14L367.455 475.937L370.26 471.537L377.498 473.165C377.498 473.165 383.493 476.564 389.521 479.27C395.549 481.976 410.19 482.57 415.349 486.717C420.508 490.864 424.27 495.374 423.709 500.808Z" fill="#00F0AC"/>
<path d="M423.709 500.808C423.379 504.108 422.224 507.199 418.924 509.146C419.875 505.902 419.68 502.43 418.374 499.312C416.174 494.373 409.013 490.017 399.597 489.291C390.181 488.565 382.976 484.165 379.203 482.196C376.255 480.667 370.04 477.323 367.455 475.937L370.26 471.537L377.498 473.165C377.498 473.165 383.493 476.564 389.521 479.27C395.549 481.976 410.19 482.57 415.349 486.717C420.508 490.864 424.27 495.374 423.709 500.808Z" fill="white"/>
<path d="M361.581 495.198C375.754 503.437 391.419 508.787 407.671 510.939C411.257 511.368 415.426 511.434 417.824 508.739C418.462 507.961 418.937 507.062 419.22 506.096C419.504 505.131 419.59 504.118 419.474 503.118C419.045 498.058 414.788 494.054 410.124 492.041C405.46 490.028 400.323 489.566 395.362 488.455C390.428 487.343 385.659 485.598 381.172 483.263C377.608 481.404 374.165 479.149 370.238 478.313C366.311 477.477 361.636 478.489 359.535 481.921" stroke="#263238" stroke-width="1.10311" stroke-linecap="round" stroke-linejoin="round"/>
<path d="M416.504 510.114C418.347 509.232 419.958 507.931 421.209 506.315C422.46 504.699 423.316 502.813 423.709 500.808C424.424 496.045 421.707 491.249 417.89 488.323C414.073 485.397 409.288 484.011 404.569 483.032C399.85 482.053 395.021 481.393 390.5 479.6C383.603 476.894 376.794 471.57 369.6 473.473" stroke="#263238" stroke-width="1.10311" stroke-linecap="round" stroke-linejoin="round"/>
<path d="M383.801 324.786L350.482 312.114L350.064 311.949C350.064 311.949 350.185 311.069 350.284 309.749C350.493 307.087 350.603 302.753 349.349 301.29C347.49 299.09 342.232 300.938 337.095 298.584C331.958 296.23 322.465 300.443 322.465 300.443C322.465 300.443 315.601 299.178 312.565 304.128C311.025 308.121 311.553 314.028 311.553 314.028L310.926 314.248C306.955 315.733 285.351 323.862 280.786 327.129C275.737 330.704 270.149 367.411 268.356 378.191C266.563 388.971 263.373 398.684 264.99 402.391C266.607 406.098 289.817 423.973 303.171 428.582C316.525 433.191 363.88 431.882 363.88 431.882C363.88 431.882 364.65 431.673 366.025 431.233C374.033 428.659 402.446 418.033 417.527 393.085C417.549 393.129 402.941 345.246 383.801 324.786ZM293.777 386.529C291.324 388.267 292.677 394.999 292.677 394.999L288.508 391.325L298.98 365.574L303.446 385.374C303.446 385.374 296.23 384.802 293.777 386.529ZM377.553 402.886C376.398 403.48 380.853 391.105 378.741 388.3C376.629 385.495 370.26 385.759 370.26 385.759L370.799 382.382L374.572 363.022L375.826 361.537C375.826 361.537 388.784 383.746 391.105 391.578C391.105 391.6 376.981 402.886 377.553 402.886Z" fill="#00F0AC"/>
<path d="M320.892 244.475L303.688 262.735C303.688 262.735 301.323 264.836 302.258 270.127C303.193 275.418 305.393 280.027 307.054 280.335C308.369 280.565 309.701 280.683 311.036 280.687C311.036 280.687 314.721 288.673 317.339 291.808C317.339 291.808 318.241 304.139 317.757 307.56C317.757 307.56 323.939 312.961 329.758 313.643C335.577 314.325 344.564 305.415 344.564 305.415L346.764 294.503C346.764 294.503 352.044 286.495 352.396 284.361C352.748 282.227 355.168 282.777 356.356 281.721C357.544 280.665 360.283 275.968 360.756 271.524C361.229 267.08 361.24 261.976 356.081 263.472C351.604 262.273 354.409 252.813 354.409 252.813L346.544 245.883L320.892 244.475Z" fill="white"/>
<path opacity="0.5" d="M350.482 312.114C350.222 312.794 349.925 313.459 349.591 314.105C346.753 319.451 334.389 329.648 334.389 329.648L330.649 318.153L328.603 329.648C324.478 327.844 311.894 316.943 311.894 316.943C311.894 316.943 311.465 315.92 310.948 314.325L311.575 314.105C311.575 314.105 311.047 308.154 312.587 304.205C315.601 299.255 322.487 300.52 322.487 300.52C322.487 300.52 331.98 296.307 337.117 298.661C342.254 301.015 347.512 299.189 349.371 301.367C351.23 303.545 350.086 311.993 350.086 311.993L350.482 312.114Z" fill="white"/>
<path opacity="0.2" d="M383.801 324.786L350.482 312.114L350.064 311.949C350.064 311.949 350.185 311.069 350.284 309.749L349.591 314.072L344.663 320.76C349.931 322.7 355.074 324.963 360.063 327.536C362.451 328.815 364.4 330.783 365.655 333.184C366.911 335.585 367.415 338.309 367.103 341L360.965 393.525L358.446 423.346L366.047 431.233C374.055 428.659 402.468 418.033 417.549 393.085C417.549 393.129 402.941 345.246 383.801 324.786ZM377.553 402.886C376.398 403.48 380.853 391.105 378.741 388.3C376.629 385.495 370.26 385.759 370.26 385.759L370.799 382.382L374.572 363.022L375.826 361.537C375.826 361.537 388.784 383.746 391.105 391.578C391.105 391.6 376.981 402.886 377.553 402.886Z" fill="black"/>
<path opacity="0.2" d="M305.657 388.3L300.476 370.986C300.476 370.986 291.181 339.295 284.812 331.485L286.484 353.771C286.484 353.771 280.984 380.391 275.957 388.3C270.93 396.209 269.808 398.2 275.957 398.2C282.106 398.2 297.077 410.124 297.077 410.124L295.922 400.224L305.657 388.3ZM292.6 394.999L288.431 391.325L298.903 365.574L303.369 385.374C303.369 385.374 296.197 384.835 293.744 386.562C291.291 388.289 292.6 394.999 292.6 394.999Z" fill="black"/>
<path d="M317.339 291.808C317.339 291.808 318.285 301.147 317.339 305.415" stroke="#263238" stroke-width="1.10311" stroke-linecap="round" stroke-linejoin="round"/>
<path d="M345.521 304.161C345.531 301.158 345.878 298.166 346.555 295.24" stroke="#263238" stroke-width="1.10311" stroke-linecap="round" stroke-linejoin="round"/>
<path d="M348.018 251.438C348.018 251.438 353.672 258.533 353.375 263.901C353.078 269.269 352.66 275.627 352.803 281.853C352.946 288.079 342.804 301.125 337.59 302.28C332.376 303.435 327.888 303.732 324.555 300.399C321.222 297.066 317.889 292.435 313.555 286.495C309.221 280.555 310.255 267.52 310.255 267.52" stroke="#263238" stroke-width="1.10311" stroke-linecap="round" stroke-linejoin="round"/>
<path d="M334.4 272.481C334.056 274.43 333.908 276.409 333.96 278.388C333.847 280.056 334.365 281.705 335.412 283.008C336.039 283.646 336.941 284.163 337.062 285.043C337.059 285.439 336.949 285.827 336.744 286.166C336.539 286.505 336.246 286.782 335.896 286.968C335.191 287.324 334.511 287.728 333.861 288.178" stroke="#263238" stroke-width="1.10311" stroke-linecap="round" stroke-linejoin="round"/>
<path d="M325.457 288.86C325.457 288.86 326.106 293.073 331.749 293.953" stroke="#263238" stroke-width="1.10311" stroke-linecap="round" stroke-linejoin="round"/>
<path d="M326.04 275.693C326.04 276.914 325.512 277.893 324.863 277.893C324.214 277.893 323.686 276.914 323.686 275.693C323.686 274.472 324.214 273.493 324.863 273.493C325.512 273.493 326.04 274.483 326.04 275.693Z" fill="#263238"/>
<path d="M342.881 276.221C342.881 277.442 342.353 278.421 341.704 278.421C341.055 278.421 340.527 277.431 340.527 276.221C340.527 275.011 341.055 274.021 341.704 274.021C342.353 274.021 342.881 275 342.881 276.221Z" fill="#263238"/>
<path d="M339.482 270.886C339.482 270.886 344.982 265.386 349.591 271.524" stroke="#263238" stroke-width="2.20621" stroke-linecap="round" stroke-linejoin="round"/>
<path d="M327.899 270.996C327.899 270.996 324.423 267.102 318.945 270.996" stroke="#263238" stroke-width="2.20621" stroke-linecap="round" stroke-linejoin="round"/>
<path d="M317.757 297C317.757 297 321.112 306.24 328.603 308.869C336.094 311.498 346.038 297.869 346.038 297.869L345.521 296.098C345.521 296.098 338.998 304.568 331.749 303.127C324.5 301.686 317.339 291.852 317.339 291.852L317.757 297Z" fill="#263238"/>
<path d="M311.036 280.335C311.036 280.335 306.57 281.908 305.382 278.432C304.194 274.956 300.124 265.793 303.688 262.735C307.252 259.677 310.112 266.772 310.112 266.772" stroke="#263238" stroke-width="1.10311" stroke-linecap="round" stroke-linejoin="round"/>
<path d="M352.792 282.227C352.792 282.227 356.939 283.063 358.127 279.587C359.315 276.111 363.385 266.948 359.821 263.89C356.257 260.832 353.397 267.927 353.397 267.927" stroke="#263238" stroke-width="1.10311" stroke-linecap="round" stroke-linejoin="round"/>
<path d="M310.112 275.693C311.663 275.448 313.064 274.622 314.028 273.383C314.617 272.295 314.991 271.104 315.128 269.874C315.536 267.535 315.742 265.165 315.744 262.79C315.696 261.862 315.781 260.932 315.997 260.029C316.327 259.12 316.836 258.286 317.493 257.576C319.044 255.75 320.925 254.21 322.41 252.318C323.206 251.425 323.812 250.379 324.19 249.245C324.568 248.11 324.711 246.91 324.61 245.718C328.013 248.524 331.99 250.55 336.26 251.654C340.53 252.758 344.99 252.914 349.327 252.109C357.192 250.569 364.727 243.672 363.814 235.004C363.642 233.551 363.018 232.188 362.032 231.107C361.046 230.026 359.745 229.281 358.314 228.976C354.431 228.008 350.944 230.076 347.424 231.407C341.011 233.827 334.73 229.669 328.251 228.976C322.751 228.371 315.898 229.064 313.016 234.575C313.016 234.575 303.116 235.741 298.716 243.925C294.316 252.109 302.643 263.428 302.643 263.428C302.643 263.428 305.943 259.38 310.266 267.564L310.112 275.693Z" fill="#263238"/>
<path d="M348.7 249.348C348.7 249.348 346.126 262.768 352.847 269.269C352.847 269.269 354.321 265.232 355.806 264.242C356.877 261.86 357.33 259.247 357.124 256.644C356.919 254.041 356.061 251.532 354.629 249.348C349.657 241.538 348.7 249.348 348.7 249.348Z" fill="#263238"/>
<path opacity="0.2" d="M360.954 234.08C360.364 235.911 359.363 237.583 358.029 238.969C356.695 240.355 355.061 241.418 353.254 242.077C343.926 245.883 334.873 241.67 325.523 240.845C317.9 240.163 309.485 247.049 308.946 254.881" stroke="white" stroke-width="1.10311" stroke-linecap="round" stroke-linejoin="round"/>
<path opacity="0.2" d="M303.193 252.813C303.307 249.722 304.299 246.728 306.052 244.18C307.805 241.632 310.247 239.636 313.093 238.425" stroke="white" stroke-width="1.10311" stroke-linecap="round" stroke-linejoin="round"/>
<path d="M315.183 304.161C319.285 308.436 324.234 311.808 329.714 314.061C329.714 314.061 340.879 310.816 346.555 303.061" stroke="#263238" stroke-width="1.10311" stroke-linecap="round" stroke-linejoin="round"/>
<path d="M326.593 284.65C331.552 282.375 333.728 276.512 331.453 271.553C329.179 266.594 323.315 264.418 318.356 266.693C313.398 268.967 311.222 274.831 313.496 279.789C315.771 284.748 321.634 286.924 326.593 284.65Z" stroke="#263238" stroke-width="1.10311" stroke-linecap="round" stroke-linejoin="round"/>
<path d="M345.734 285.519C351.149 284.854 355 279.926 354.335 274.511C353.67 269.096 348.741 265.246 343.327 265.911C337.912 266.575 334.061 271.504 334.726 276.919C335.391 282.334 340.319 286.184 345.734 285.519Z" stroke="#263238" stroke-width="1.10311" stroke-linecap="round" stroke-linejoin="round"/>
<path d="M317.339 300.476C316.338 300.739 315.401 301.2 314.582 301.834C313.764 302.467 313.082 303.258 312.576 304.161C310.827 307.241 311.883 316.932 311.883 316.932C311.883 316.932 320.914 325.864 328.603 329.637L330.869 316.888L334.389 329.637C334.389 329.637 346.291 321.222 349.591 314.105C349.591 314.105 350.691 305.8 349.591 303.105C349.341 302.356 348.865 301.704 348.229 301.237C347.592 300.77 346.827 300.512 346.038 300.498" stroke="#263238" stroke-width="1.10311" stroke-linecap="round" stroke-linejoin="round"/>
<path d="M303.193 385.77C303.193 385.77 299.662 362.12 294.965 352.473" stroke="#263238" stroke-width="1.10311" stroke-linecap="round" stroke-linejoin="round"/>
<path d="M284.812 331.485C287.547 335.372 289.988 339.457 292.116 343.706" stroke="#263238" stroke-width="1.10311" stroke-linecap="round" stroke-linejoin="round"/>
<path d="M377.553 349.14C378.501 345.186 379.801 341.324 381.436 337.601" stroke="#263238" stroke-width="1.10311" stroke-linecap="round" stroke-linejoin="round"/>
<path d="M370.26 385.77C370.26 385.77 372.801 369.556 375.837 356.202" stroke="#263238" stroke-width="1.10311" stroke-linecap="round" stroke-linejoin="round"/>
<path d="M374.572 363C377.028 359.744 380.482 357.379 384.406 356.268" stroke="#263238" stroke-width="1.10311" stroke-linecap="round" stroke-linejoin="round"/>
<path d="M350.075 311.949C350.075 311.949 370.568 320.144 383.801 324.797C383.801 324.797 400.081 340.098 417.538 393.129C417.538 393.129 401.544 420.035 371.118 428.659" stroke="#263238" stroke-width="1.10311" stroke-linecap="round" stroke-linejoin="round"/>
<path d="M376.398 403.843L391.105 391.6C391.105 391.6 398.882 385.693 406.967 389.73" stroke="#263238" stroke-width="1.10311" stroke-linecap="round" stroke-linejoin="round"/>
<path d="M375.837 361.537C375.837 361.537 387.992 379.5 391.105 391.6" stroke="#263238" stroke-width="1.10311" stroke-linecap="round" stroke-linejoin="round"/>
<path d="M292.765 395.681L288.464 391.6C288.464 391.6 282.084 390.5 274.846 395.329" stroke="#263238" stroke-width="1.10311" stroke-linecap="round" stroke-linejoin="round"/>
<path d="M288.464 391.6C288.464 391.6 293.81 374 299.079 364.991" stroke="#263238" stroke-width="1.10311" stroke-linecap="round" stroke-linejoin="round"/>
<path d="M311.575 314.105C311.575 314.105 282.084 325.171 279.191 328.405C276.298 331.639 265.309 393.514 265.012 400.598C264.759 406.934 287.727 421.157 299.112 427.152" stroke="#263238" stroke-width="1.10311" stroke-linecap="round" stroke-linejoin="round"/>
<path d="M333.63 335.016C333.63 335.401 333.516 335.778 333.302 336.098C333.088 336.418 332.784 336.667 332.428 336.815C332.072 336.962 331.681 337.001 331.303 336.926C330.925 336.85 330.579 336.665 330.306 336.393C330.034 336.12 329.849 335.774 329.773 335.396C329.698 335.018 329.737 334.627 329.884 334.271C330.032 333.915 330.281 333.611 330.601 333.397C330.921 333.183 331.298 333.069 331.683 333.069C331.939 333.068 332.193 333.117 332.43 333.214C332.667 333.312 332.882 333.455 333.063 333.636C333.244 333.817 333.387 334.032 333.485 334.269C333.582 334.506 333.631 334.76 333.63 335.016Z" fill="#263238"/>
<path d="M367.752 438.658H300.652C300.235 438.658 299.835 438.492 299.54 438.197C299.245 437.902 299.079 437.502 299.079 437.085C299.079 436.668 299.245 436.268 299.54 435.973C299.835 435.678 300.235 435.512 300.652 435.512H367.752C368.169 435.512 368.569 435.678 368.864 435.973C369.159 436.268 369.325 436.668 369.325 437.085C369.325 437.502 369.159 437.902 368.864 438.197C368.569 438.492 368.169 438.658 367.752 438.658Z" fill="#263238"/>
<path d="M370.106 433.4L379.093 391.16C379.233 390.505 379.224 389.827 379.067 389.176C378.911 388.525 378.611 387.917 378.189 387.397C377.767 386.877 377.234 386.458 376.629 386.171C376.024 385.884 375.363 385.735 374.693 385.737H296.263C295.599 385.737 294.943 385.885 294.343 386.169C293.743 386.453 293.214 386.866 292.793 387.38C292.372 387.893 292.07 388.494 291.91 389.138C291.749 389.782 291.733 390.454 291.863 391.105L299.926 431.937C300.124 432.94 300.658 433.845 301.44 434.503C302.222 435.161 303.205 435.533 304.227 435.556L365.596 436.964C366.645 436.987 367.669 436.644 368.492 435.994C369.316 435.343 369.886 434.426 370.106 433.4Z" fill="white" stroke="#263238" stroke-width="1.10311" stroke-linecap="round" stroke-linejoin="round"/>
<path d="M341.484 410.113C341.482 411.35 341.113 412.559 340.424 413.587C339.735 414.615 338.756 415.416 337.613 415.888C336.469 416.36 335.211 416.482 333.997 416.239C332.784 415.997 331.67 415.4 330.795 414.524C329.921 413.648 329.326 412.533 329.085 411.319C328.845 410.105 328.969 408.847 329.443 407.704C329.918 406.561 330.72 405.584 331.749 404.897C332.778 404.21 333.988 403.843 335.225 403.843C336.048 403.843 336.863 404.005 337.623 404.321C338.383 404.636 339.073 405.098 339.655 405.68C340.236 406.263 340.697 406.954 341.011 407.714C341.325 408.475 341.485 409.29 341.484 410.113Z" fill="#263238"/>
<path d="M353.793 389.774H363.11" stroke="#263238" stroke-width="1.10311" stroke-linecap="round" stroke-linejoin="round"/>
<path d="M309.298 389.774H344.663" stroke="#263238" stroke-width="1.10311" stroke-linecap="round" stroke-linejoin="round"/>
<path d="M370.26 478.247L363.11 497.013C363.11 497.013 344.872 492.415 321.519 487.63C297.088 482.625 271.579 476.146 258.346 452.925C256.74 450.098 255.662 446.754 256.421 443.586C258.324 435.567 268.763 433.389 275.638 432.586C279.96 432.118 284.304 431.876 288.651 431.86C290.851 431.86 298.166 430.661 299.937 431.97C302.598 433.911 305.438 435.595 308.418 436.997C312.323 438.658 369.325 435.512 369.325 435.512C370.317 433.349 370.924 431.03 371.118 428.659C380.083 424.105 400.818 420.255 409.618 421.96C423.401 424.633 431.442 432.674 429.913 441.1C428.384 449.526 397.936 472.12 370.26 478.247Z" fill="#263238"/>
<path d="M370.26 478.247C370.26 478.247 352.913 473.649 338.745 464.079C324.577 454.509 313.511 443.399 293.766 445.698" stroke="white" stroke-width="1.10311" stroke-linecap="round" stroke-linejoin="round"/>
<path d="M335.5 461.824C344.454 459.25 351.021 453.453 358.204 447.898C365.78 441.817 373.916 436.47 382.503 431.926" stroke="white" stroke-width="1.10311" stroke-linecap="round" stroke-linejoin="round"/>
<path d="M332.343 277.255H334.972" stroke="#263238" stroke-width="1.10311" stroke-linecap="round" stroke-linejoin="round"/>
</svg>
